<svg width="84" height="84" viewBox="0 0 84 84" fill="none" xmlns="http://www.w3.org/2000/svg">
<circle cx="42" cy="42" r="42" fill="#F2F4F5"/>
<path d="M55.673 56.3578V50.888C55.673 49.0746 54.9527 47.3356 53.6705 46.0534C52.3883 44.7711 50.6492 44.0508 48.8358 44.0508H35.1614C33.3481 44.0508 31.609 44.7711 30.3268 46.0534C29.0446 47.3356 28.3242 49.0746 28.3242 50.888V56.3578" fill="#C6C6C6"/>
<path d="M42.0013 40.2897C45.7774 40.2897 48.8385 37.2285 48.8385 33.4524C48.8385 29.6764 45.7774 26.6152 42.0013 26.6152C38.2252 26.6152 35.1641 29.6764 35.1641 33.4524C35.1641 37.2285 38.2252 40.2897 42.0013 40.2897Z" fill="#C6C6C6"/>
</svg>
