<svg width="18" height="18" viewBox="0 0 18 18" fill="none" xmlns="http://www.w3.org/2000/svg">
<g id="ico/?">
<path id="Vector" fill-rule="evenodd" clip-rule="evenodd" d="M9 16.5937C4.80312 16.5937 1.40633 13.1974 1.40633 9C1.40633 4.80264 4.80249 1.40618 9 1.40618C13.1975 1.40618 16.5937 4.80249 16.5937 8.99984C16.5937 13.1972 13.1974 16.5935 9 16.5935V16.5937ZM9 0C4.02593 0 0 4.0253 0 9C0 13.9747 4.0253 18 9 18C13.9747 18 18 13.9747 18 9C18 4.0253 13.9745 0 9 0ZM8.8815 12.6741L8.84816 12.6736C8.33483 12.6584 7.97286 12.2802 7.98755 11.7744C8.00193 11.2774 8.37259 10.9165 8.86902 10.9165L8.89888 10.917C9.42643 10.9326 9.7843 11.3069 9.7696 11.8272C9.75491 12.3257 9.38994 12.6739 8.88182 12.6739L8.8815 12.6741ZM11.0407 8.38855C10.92 8.55998 10.6545 8.77296 10.3201 9.03365L9.95178 9.28803C9.74954 9.44524 9.62757 9.59312 9.58175 9.73864C9.54572 9.85318 9.52787 9.88352 9.52487 10.1166L9.52439 10.1758H8.1179L8.12201 10.0568C8.13923 9.56768 8.15124 9.27981 8.35395 9.04218C8.672 8.66868 9.37366 8.21696 9.40352 8.19785C9.50401 8.12217 9.58886 8.0359 9.6519 7.94379C9.79947 7.74029 9.86488 7.58008 9.86488 7.42255C9.86488 7.20404 9.8001 7.00197 9.6718 6.82217C9.54857 6.64853 9.31441 6.56068 8.97598 6.56068C8.63755 6.56068 8.41035 6.66717 8.27274 6.88584C8.13133 7.11067 8.05976 7.34672 8.05976 7.58782V7.64786H6.60966L6.61234 7.58529C6.64979 6.69703 6.96673 6.05746 7.55417 5.68427C7.92325 5.44664 8.38255 5.32609 8.91847 5.32609C9.61998 5.32609 10.2122 5.49657 10.6784 5.83279C11.1508 6.17343 11.3903 6.6836 11.3903 7.34924C11.3903 7.72149 11.2728 8.07129 11.0409 8.38902L11.0407 8.38855Z" fill="#EFEFEF"/>
</g>
</svg>
